HIERARCHY
ROOT Hips
{
	OFFSET 0.00000 0.00000 0.00000
	CHANNELS 6 Xposition Yposition Zposition Zrotation Yrotation Xrotation 
	JOINT LHipJoint
	{
		OFFSET 0 0 0
		CHANNELS 3 Zrotation Yrotation Xrotation
		JOINT LeftHip
		{
			OFFSET 1.62329 -1.80800 0.67318
			CHANNELS 3 Zrotation Yrotation Xrotation
			JOINT LeftKnee
			{
				OFFSET 2.57139 -7.06484 0.00000
				CHANNELS 3 Zrotation Yrotation Xrotation
				JOINT LeftAnkle
				{
					OFFSET 2.52017 -6.92413 0.00000
					CHANNELS 3 Zrotation Yrotation Xrotation
					JOINT LeftToe
					{
						OFFSET 0.23295 -0.64001 2.10214
						CHANNELS 3 Zrotation Yrotation Xrotation
						End Site
						{
							OFFSET 0.00000 -0.00000 1.10139
						}
					}
				}
			}
		}
	}
	JOINT RHipJoint
	{
		OFFSET 0 0 0
		CHANNELS 3 Zrotation Yrotation Xrotation
		JOINT RightHip
		{
			OFFSET -1.48061 -1.80800 0.67318
			CHANNELS 3 Zrotation Yrotation Xrotation
			JOINT RightKnee
			{
				OFFSET -2.63258 -7.23296 0.00000
				CHANNELS 3 Zrotation Yrotation Xrotation
				JOINT RightAnkle
				{
					OFFSET -2.54779 -7.00000 0.00000
					CHANNELS 3 Zrotation Yrotation Xrotation
					JOINT RightToe
					{
						OFFSET -0.23067 -0.63376 2.12161
						CHANNELS 3 Zrotation Yrotation Xrotation
						End Site
						{
							OFFSET -0.00000 -0.00000 1.11000
						}
					}
				}
			}
		}
	}
	JOINT lowerback
	{
		OFFSET 0 0 0
		CHANNELS 3 Zrotation Yrotation Xrotation
		JOINT Chest
		{
			OFFSET -0.02108 2.07573 -0.16981
			CHANNELS 3 Zrotation Yrotation Xrotation
			JOINT Chest2
			{
				OFFSET 0.05070 2.08439 -0.03141
				CHANNELS 3 Zrotation Yrotation Xrotation
				JOINT lowerneck
				{
					OFFSET 0 0 0
					CHANNELS 3 Zrotation Yrotation Xrotation
					JOINT Neck
					{
						OFFSET -0.10731 1.60408 0.31370
						CHANNELS 3 Zrotation Yrotation Xrotation
						JOINT Head
						{
							OFFSET 0.08411 1.65679 -0.30822
							CHANNELS 3 Zrotation Yrotation Xrotation
							End Site
							{
								OFFSET 0.03911 1.69149 -0.14146
							}
						}
					}
				}
				JOINT LeftCollar
				{
					OFFSET 0 0 0
					CHANNELS 3 Zrotation Yrotation Xrotation
					JOINT LeftShoulder
					{
						OFFSET 3.52315 0.73219 -0.54694
CHANNELS 3 Zrotation Xrotation Yrotation
						JOINT LeftElbow
						{
OFFSET 0 -5.324620 -0.000000
CHANNELS 3 Zrotation Xrotation Yrotation
							JOINT LeftWrist
							{
OFFSET 0 -3.484020 -0.000000
CHANNELS 3 Zrotation Xrotation Yrotation
								JOINT lhand
								{
									OFFSET 0 0 0
CHANNELS 3 Zrotation Xrotation Yrotation
									JOINT LFingers
									{
OFFSET 0 -0.572480 -0.000000
CHANNELS 3 Zrotation Xrotation Yrotation
										End Site
										{
OFFSET 0 -0.461540 -0.000000
										}
									}
								}
								JOINT LThumb
								{
OFFSET 0 0.000000 0.000000
CHANNELS 3 Zrotation Xrotation Yrotation
									End Site
									{
OFFSET 0 -0.468590 0.468590
									}
								}
							}
						}
					}
				}
				JOINT RightCollar
				{
					OFFSET 0 0 0
					CHANNELS 3 Zrotation Yrotation Xrotation
					JOINT RightShoulder
					{
						OFFSET -3.41766 0.93592 -0.10019
CHANNELS 3 Zrotation Xrotation Yrotation
						JOINT RightElbow
						{
OFFSET 0 -5.335890 -0.000000
CHANNELS 3 Zrotation Xrotation Yrotation
							JOINT RightWrist
							{
OFFSET 0 -3.641340 -0.000000
CHANNELS 3 Zrotation Xrotation Yrotation
								JOINT rhand
								{
									OFFSET 0 0 0
CHANNELS 3 Zrotation Xrotation Yrotation
									JOINT RFingers
									{
OFFSET 0 -0.734810 -0.000000
CHANNELS 3 Zrotation Xrotation Yrotation
										End Site
										{
OFFSET 0 -0.592420 -0.000000
										}
									}
								}
								JOINT RThumb
								{
OFFSET 0 0.000000 0.000000
CHANNELS 3 Zrotation Xrotation Yrotation
									End Site
									{
OFFSET 0 -0.601470 0.601470
									}
								}
							}
						}
					}
				}
			}
		}
	}
}
MOTION
Frames: 8
Frame Time: .0083333
13.7504 17.8174 0.0302 4.0520 -5.8962 20.0354 0.0000 0.0000 0.0000 -24.3222 -14.1227 -31.8646 1.4796 7.6856 21.7631 -0.7689 -15.9763 1.0320 0.0141 0.7657 2.1043 0.0000 0.0000 0.0000 14.8947 -14.9651 -34.9771 -3.9224 -12.0564 35.9319 -2.5666 -8.1243 -33.9719 -0.0561 1.5277 -4.2022 1.9771 3.1418 13.9269 7.1027 4.5771 5.6124 5.6431 2.2172 -2.3012 -9.0404 -11.4967 -9.5848 9.7625 -17.1074 26.8385 2.6979 -7.4637 12.0664 -0.0000 0.0000 0.0000 5.9988 -17.5121 -47.6065 109.2991 -58.5448 76.6319 -0.459 -57.4075 -22.4724 0.0 0.0 0.0 -7.1250 0.0 0.0 -28.8766 50.0744 3.8994 -0.0000 0.0000 0.0000 -18.904 -25.516 17.0998 -13.9130 -22.6102 -2.7946 -39.3155 56.3697 4.4801 0.0 0.0 0.0 7.1250 0.0 -0.0 -10.5631 35.5951 -2.4757
13.7477 17.8154 0.0334 4.1435 -5.8779 19.9772 0.0000 0.0000 0.0000 -24.3669 -14.2822 -31.7562 1.4845 7.6977 21.7995 -0.7534 -15.8194 1.0199 0.0185 0.8779 2.4129 0.0000 0.0000 0.0000 14.7817 -14.9651 -34.8611 -3.9188 -12.0516 35.9147 -2.5886 -8.0727 -34.0653 -0.0601 1.5817 -4.3510 1.9613 3.2362 14.0217 7.1052 4.7062 5.5938 5.6281 2.2815 -2.3846 -8.9896 -11.6021 -9.5498 9.6505 -17.2362 26.8502 2.6294 -7.5273 12.0614 -0.0000 -0.0000 0.0000 6.1727 -16.7479 -47.2724 111.3523 -58.2052 78.3802 -0.5975 -56.6313 -21.2723 0.0 0.0 0.0 -7.1250 0.0 0.0 -28.3309 48.9995 3.016 -0.0000 -0.0000 0.0000 -18.5273 -25.87 17.6089 -14.0671 -22.8306 -2.8541 -39.3592 56.3394 4.4305 0.0 0.0 0.0 7.1250 0.0 -0.0 -10.5939 35.5347 -2.499
13.7452 17.8112 0.0357 4.2641 -5.7707 19.8753 0.0000 0.0000 0.0000 -24.5020 -14.3121 -31.6652 1.4948 7.7234 21.8770 -0.7605 -15.8802 1.0632 0.0241 1.0014 2.7526 0.0000 0.0000 0.0000 14.6808 -15.0863 -34.7209 -3.9042 -12.0319 35.8448 -2.6186 -8.0724 -34.2308 -0.0540 1.4993 -4.1239 1.9961 3.3067 14.1512 7.1175 4.8125 5.5811 5.5969 2.3346 -2.4752 -9.0085 -11.7237 -9.5779 9.5998 -17.3907 26.8716 2.5854 -7.5988 12.0901 -0.0000 -0.0000 0.0000 6.3093 -15.9759 -46.9503 113.5342 -57.8002 80.2307 -0.5838 -55.8766 -20.5547 0.0 0.0 0.0 -7.1250 0.0 0.0 -27.9363 48.3681 2.5035 -0.0000 -0.0000 0.0000 -18.1449 -26.2705 18.0473 -14.1876 -23.0023 -2.901 -39.3861 56.3462 4.3434 0.0 0.0 0.0 7.1250 0.0 -0.0 -10.6061 35.4257 -2.5306
13.7514 17.8067 0.0686 4.2594 -6.4181 19.7523 0.0000 0.0000 0.0000 -24.6250 -14.0632 -31.5074 1.5016 7.7400 21.9271 -0.7179 -15.5789 0.5871 0.0141 0.7667 2.1070 0.0000 0.0000 0.0000 14.4300 -14.8313 -34.4974 -3.8972 -12.0223 35.8110 -2.6233 -7.8139 -34.1124 -0.0447 1.3639 -3.7508 1.9182 3.6333 13.9395 7.0590 5.2032 5.7238 5.5270 2.5256 -2.2459 -9.1062 -11.8947 -9.7736 9.5966 -17.6250 27.0386 2.5457 -7.6948 12.2340 -0.0000 0.0000 0.0000 6.4801 -15.2662 -46.6216 115.8149 -57.3258 82.1557 -0.3323 -55.3823 -20.4826 0.0 0.0 0.0 -7.1250 0.0 0.0 -27.6759 48.3398 2.4559 -0.0000 0.0000 0.0000 -17.7466 -26.7583 18.4818 -14.2447 -23.0835 -2.9234 -39.4715 56.7514 4.4802 0.0 0.0 0.0 7.1250 0.0 -0.0 -10.6936 35.6038 -2.5049
13.7458 17.8002 0.0599 4.3867 -6.0211 19.6278 0.0000 0.0000 0.0000 -24.7690 -14.0992 -31.4410 1.5097 7.7600 21.9876 -0.7552 -15.9311 0.7155 0.0133 0.7451 2.0477 0.0000 0.0000 0.0000 14.3830 -14.9999 -34.3631 -3.9081 -12.0371 35.8634 -2.6901 -7.8068 -34.4756 -0.0387 1.2701 -3.4922 2.0566 3.6440 14.2176 7.1045 5.2554 5.6948 5.4727 2.5525 -2.4223 -9.1598 -12.0522 -9.9074 9.6076 -17.8509 27.1723 2.5093 -7.7843 12.3488 -0.0000 -0.0000 0.0000 6.6802 -14.6817 -46.3181 117.9082 -56.8421 83.913 0.0573 -54.7823 -20.374 0.0 0.0 0.0 -7.1250 0.0 0.0 -27.2742 48.2985 2.3853 -0.0000 -0.0000 0.0000 -17.3632 -27.2624 18.9683 -14.3291 -23.2032 -2.9565 -39.5297 56.9702 4.5363 0.0 0.0 0.0 7.1250 0.0 -0.0 -10.7489 35.6782 -2.4984
13.7478 17.7914 0.0691 4.5330 -6.0488 19.5088 0.0000 0.0000 0.0000 -24.9134 -14.2618 -31.2732 1.5167 7.7772 22.0393 -0.7428 -15.9184 0.3588 0.0119 0.7049 1.9371 0.0000 0.0000 0.0000 14.1759 -15.0809 -34.2369 -3.9144 -12.0456 35.8935 -2.6769 -7.9171 -34.4645 -0.0520 1.4719 -4.0482 2.1178 3.7868 14.2328 7.0756 5.4456 5.7476 5.3753 2.6467 -2.3822 -9.1505 -12.1568 -9.6602 9.6389 -17.9985 27.0020 2.5093 -7.8591 12.2504 0.0000 -0.0000 0.0000 6.9417 -14.1121 -45.9798 119.6986 -56.3897 85.408 0.0981 -54.0133 -19.7918 0.0 0.0 0.0 -7.1250 0.0 0.0 -26.9429 47.7861 1.9892 0.0000 -0.0000 0.0000 -16.9206 -27.7223 19.4084 -14.4241 -23.3377 -2.9941 -40.047 56.5733 4.0561 0.0 0.0 0.0 7.1250 0.0 -0.0 -11.1214 35.0931 -2.749
13.7482 17.7792 0.0736 4.7036 -5.9336 19.5086 0.0000 0.0000 0.0000 -24.9519 -14.8017 -31.1247 1.5214 7.7886 22.0739 -0.7035 -15.6835 -0.1555 0.0042 0.4174 1.1468 0.0000 0.0000 0.0000 13.9993 -15.1179 -34.2715 -3.9383 -12.0778 36.0078 -2.7135 -7.8962 -34.6521 -0.0417 1.3180 -3.6242 2.1621 3.8934 14.1631 7.0911 5.5889 5.7385 5.3459 2.7184 -2.3636 -9.1242 -12.2945 -9.4086 9.5779 -18.1642 26.7923 2.4707 -7.9524 12.1251 0.0000 -0.0000 0.0000 7.117 -13.4399 -45.5928 121.4856 -55.9009 86.892 -0.2885 -53.4204 -19.5155 0.0 0.0 0.0 -7.1250 0.0 0.0 -27.1459 47.4871 1.7926 0.0000 -0.0000 0.0000 -16.5439 -28.3098 19.9712 -14.4684 -23.4004 -3.0116 -40.9007 56.0331 3.5208 0.0 0.0 0.0 7.1250 0.0 -0.0 -11.7555 34.4434 -3.1006
13.7481 17.7788 0.0803 4.8077 -5.8181 19.3773 0.0000 0.0000 0.0000 -25.1723 -14.6903 -30.9978 1.5276 7.8038 22.1197 -0.6929 -15.4316 0.2216 0.0080 0.5762 1.5833 0.0000 0.0000 0.0000 13.8591 -15.1373 -34.0909 -3.9555 -12.1009 36.0899 -2.8044 -7.6507 -35.0103 -0.0236 0.9923 -2.7275 2.2496 3.9876 14.2260 7.1427 5.7248 5.7932 5.3269 2.7855 -2.3473 -9.1514 -12.4613 -9.3755 9.5392 -18.3736 26.7086 2.4261 -8.0534 12.1081 0.0000 -0.0000 0.0000 7.2348 -12.7061 -45.1271 123.3848 -55.3384 88.4596 -0.5706 -52.954 -19.9359 0.0 0.0 0.0 -7.1250 0.0 0.0 -27.6054 47.822 2.072 0.0000 -0.0000 0.0000 -16.2008 -29.0489 20.6809 -14.5275 -23.4838 -3.0352 -41.3274 55.7899 3.2386 0.0 0.0 0.0 7.1250 0.0 -0.0 -12.0651 34.0944 -3.2898
